<?xml version="1.0" encoding="UTF-8"?>
<svg version="1.1" xmlns="http://www.w3.org/2000/svg" width="500" height="500">
<path d="M0 0 C165 0 330 0 500 0 C500 165 500 330 500 500 C335 500 170 500 0 500 C0 335 0 170 0 0 Z " fill="#000000" transform="translate(0,0)"/>
<path d="M0 0 C10.56 0 21.12 0 32 0 C32 10.56 32 21.12 32 32 C64.34 32 96.68 32 130 32 C130 21.44 130 10.88 130 0 C140.56 0 151.12 0 162 0 C162 10.56 162 21.12 162 32 C172.56 32 183.12 32 194 32 C194 42.56 194 53.12 194 64 C204.89 64 215.78 64 227 64 C227 74.56 227 85.12 227 96 C237.56 96 248.12 96 259 96 C259 128.34 259 160.68 259 194 C248.44 194 237.88 194 227 194 C227 172.55 227 151.1 227 129 C216.11 129 205.22 129 194 129 C194 150.45 194 171.9 194 194 C183.44 194 172.88 194 162 194 C162 183.44 162 172.88 162 162 C108.54 162 55.08 162 0 162 C0 172.56 0 183.12 0 194 C-10.56 194 -21.12 194 -32 194 C-32 172.55 -32 151.1 -32 129 C-42.89 129 -53.78 129 -65 129 C-65 150.45 -65 171.9 -65 194 C-75.89 194 -86.78 194 -98 194 C-98 161.99 -98 129.98 -98 97 C-87.11 97 -76.22 97 -65 97 C-65 86.11 -65 75.22 -65 64 C-54.11 64 -43.22 64 -32 64 C-32 53.44 -32 42.88 -32 32 C-21.44 32 -10.88 32 0 32 C0 21.44 0 10.88 0 0 Z " fill="#F8F7F5" transform="translate(174,141)"/>
<path d="M0 0 C21.45 0 42.9 0 65 0 C65 10.89 65 21.78 65 33 C43.55 33 22.1 33 0 33 C0 22.11 0 11.22 0 0 Z " fill="#F5F3F1" transform="translate(174,335)"/>
<path d="M0 0 C21.45 0 42.9 0 65 0 C65 10.56 65 21.12 65 32 C43.55 32 22.1 32 0 32 C0 21.44 0 10.88 0 0 Z " fill="#F9F8F6" transform="translate(271,335)"/>
<path d="M0 0 C1.3488873 0.00025096 2.69778106 0.00580724 4.04663086 0.01586914 C5.99194702 0.01961548 5.99194702 0.01961548 7.9765625 0.0234375 C10.46884399 0.03709351 10.46884399 0.03709351 13.01147461 0.05102539 C18.27084961 0.07165039 23.53022461 0.09227539 28.94897461 0.11352539 C28.94897461 11.00352539 28.94897461 21.89352539 28.94897461 33.11352539 C18.05897461 33.11352539 7.16897461 33.11352539 -4.05102539 33.11352539 C-4.07165039 27.85415039 -4.09227539 22.59477539 -4.11352539 17.17602539 C-4.12262939 15.51450439 -4.1317334 13.8529834 -4.14111328 12.14111328 C-4.14361084 10.84423584 -4.1461084 9.5473584 -4.14868164 8.21118164 C-4.15635559 7.18244934 -4.15635559 7.18244934 -4.16418457 6.13293457 C-4.16449593 4.45937308 -4.11325376 2.78592959 -4.05102539 1.11352539 C-3.05102539 0.11352539 -3.05102539 0.11352539 0 0 Z " fill="#0D0C0C" transform="translate(307.051025390625,204.886474609375)"/>
<path d="M0 0 C10.56 0 21.12 0 32 0 C32 10.56 32 21.12 32 32 C21.44 32 10.88 32 0 32 C0 21.44 0 10.88 0 0 Z " fill="#030303" transform="translate(174,206)"/>
<path d="M0 0 C10.56 0 21.12 0 32 0 C32 10.56 32 21.12 32 32 C21.44 32 10.88 32 0 32 C0 21.44 0 10.88 0 0 Z " fill="#F9F8F6" transform="translate(336,108)"/>
<path d="M0 0 C10.56 0 21.12 0 32 0 C32 10.56 32 21.12 32 32 C21.44 32 10.88 32 0 32 C0 21.44 0 10.88 0 0 Z " fill="#F9F8F6" transform="translate(142,108)"/>
</svg>
